HIERARCHY
ROOT root
{
	OFFSET 0.000000 0.000000 0.000000
	CHANNELS 6 Xposition Yposition Zposition Zrotation Yrotation Xrotation
	JOINT lhip
	{
		OFFSET 0.058581 -0.082280 -0.017664
		CHANNELS 3 Zrotation Yrotation Xrotation
		JOINT lknee
		{
			OFFSET 0.043451 -0.386469 0.008037
			CHANNELS 3 Zrotation Yrotation Xrotation
			JOINT lankle
			{
				OFFSET -0.014790 -0.426874 -0.037428
				CHANNELS 3 Zrotation Yrotation Xrotation
				JOINT ltoe
				{
					OFFSET 0.041054 -0.060286 0.122042
					CHANNELS 3 Zrotation Yrotation Xrotation
					End Site
					{
						OFFSET 0.000000 0.000000 0.000000
					}
				}
			}
		}
	}
	JOINT rhip
	{
		OFFSET -0.060310 -0.090513 -0.013543
		CHANNELS 3 Zrotation Yrotation Xrotation
		JOINT rknee
		{
			OFFSET -0.043257 -0.383688 -0.004843
			CHANNELS 3 Zrotation Yrotation Xrotation
			JOINT rankle
			{
				OFFSET 0.019056 -0.420046 -0.034562
				CHANNELS 3 Zrotation Yrotation Xrotation
				JOINT rtoe
				{
					OFFSET -0.034840 -0.062106 0.130323
					CHANNELS 3 Zrotation Yrotation Xrotation
					End Site
					{
						OFFSET 0.000000 0.000000 0.000000
					}
				}
			}
		}
	}
	JOINT lowerback
	{
		OFFSET 0.004439 0.124404 -0.038385
		CHANNELS 3 Zrotation Yrotation Xrotation
		JOINT upperback
		{
			OFFSET 0.004488 0.137956 0.026820
			CHANNELS 3 Zrotation Yrotation Xrotation
			JOINT chest
			{
				OFFSET -0.002265 0.056032 0.002855
				CHANNELS 3 Zrotation Yrotation Xrotation
				JOINT lowerneck
				{
					OFFSET -0.013390 0.211636 -0.033468
					CHANNELS 3 Zrotation Yrotation Xrotation
					JOINT upperneck
					{
						OFFSET 0.010113 0.088937 0.050410
						CHANNELS 3 Zrotation Yrotation Xrotation
						End Site
						{
							OFFSET 0.000000 0.000000 0.000000
						}
					}
				}
				JOINT lclavicle
				{
					OFFSET 0.071702 0.114000 -0.018898
					CHANNELS 3 Zrotation Yrotation Xrotation
					JOINT lshoulder
					{
						OFFSET 0.122921 0.045205 -0.019046
						CHANNELS 3 Zrotation Yrotation Xrotation
						JOINT lelbow
						{
							OFFSET 0.255332 -0.015649 -0.022946
							CHANNELS 3 Zrotation Yrotation Xrotation
							JOINT lwrist
							{
								OFFSET 0.265709 0.012698 -0.007375
								CHANNELS 3 Zrotation Yrotation Xrotation
								End Site
								{
									OFFSET 0.000000 0.000000 0.000000
								}
							}
						}
					}
				}
				JOINT rclavicle
				{
					OFFSET -0.082954 0.112472 -0.023707
					CHANNELS 3 Zrotation Yrotation Xrotation
					JOINT rshoulder
					{
						OFFSET -0.113228 0.046853 -0.008472
						CHANNELS 3 Zrotation Yrotation Xrotation
						JOINT relbow
						{
							OFFSET -0.260127 -0.014369 -0.031269
							CHANNELS 3 Zrotation Yrotation Xrotation
							JOINT rwrist
							{
								OFFSET -0.269108 0.006794 -0.006027
								CHANNELS 3 Zrotation Yrotation Xrotation
								End Site
								{
									OFFSET 0.000000 0.000000 0.000000
								}
							}
						}
					}
				}
			}
		}
	}
}
MOTION
Frames: 14
Frame Time: 0.033333
-0.389872 0.838742 0.978771 79.358086 -2.640075 84.408963 3.451760 1.557750 -12.858730 -1.214111 3.069640 -2.588443 -5.312712 11.273226 -5.234150 0.000000 -0.000000 0.000000 -1.788271 -1.933415 16.778439 -1.009481 12.984552 2.333937 1.869835 -3.692811 -15.550675 0.000000 -0.000000 0.000000 1.174323 3.794860 10.756854 2.065506 -5.444631 1.775701 -0.400529 -2.904005 4.020926 3.095163 -8.145808 6.002783 2.377224 -12.716365 19.121446 -24.016411 9.319925 4.126914 -51.432976 -4.134272 3.363911 10.419659 -27.605901 -11.367963 1.077039 -9.232604 -25.567463 21.674343 -5.652047 -0.310519 54.962548 -1.248437 16.688419 -8.635652 55.459831 3.662565 3.573620 11.037253 -20.882355 
-0.359387 0.844414 0.978697 78.629702 -2.290847 84.542388 3.053922 0.723561 -12.636125 -1.418836 2.851495 -1.344487 -5.076905 11.536387 -5.309356 0.000000 -0.000000 0.000000 -2.259712 -1.504787 17.574836 -0.835427 13.404696 4.113208 2.872572 -3.125289 -15.199612 0.000000 -0.000000 0.000000 1.124591 3.818992 10.325710 2.007355 -5.591449 2.290732 -0.571610 -2.768084 3.982428 3.130350 -8.404328 6.150768 2.319799 -11.800362 18.265803 -24.390831 9.973789 4.100396 -51.335433 -3.593490 3.293921 11.116024 -28.541920 -12.647320 3.043248 -8.829350 -26.935394 21.695718 -5.984218 -0.270498 54.607376 -1.686468 17.039299 -8.407217 57.566738 4.153315 2.997960 10.842209 -21.292862 
-0.326222 0.849333 0.977584 77.731581 -1.948419 84.907218 2.373057 0.081651 -11.913914 -1.449440 2.738825 0.557831 -4.556975 11.366395 -3.598223 0.000000 -0.000000 0.000000 -2.561858 -1.077465 17.953014 -0.958295 13.705654 6.192163 3.282355 -2.369446 -14.745288 0.000000 -0.000000 0.000000 0.814201 4.037413 9.371588 1.954185 -5.411934 2.345625 -0.716724 -2.879334 4.084622 3.232451 -8.283446 6.398589 2.476193 -11.390998 18.159077 -24.184551 10.838571 3.936366 -51.459921 -3.254876 3.180698 11.874198 -29.536786 -13.184203 2.643838 -9.114769 -27.306354 21.598823 -6.836073 -0.372509 54.669493 -2.148552 17.523193 -8.089064 58.687649 4.974516 4.113868 10.961349 -21.904540 
-0.283256 0.855880 0.977659 77.932553 -1.770262 85.152045 1.609199 -1.164101 -10.410750 -1.060621 1.055412 -0.268644 -2.644933 11.678388 1.464559 0.000000 -0.000000 0.000000 -2.550071 -0.665875 17.614051 -1.193044 13.807366 10.758534 3.809816 -2.476992 -13.559900 0.000000 -0.000000 0.000000 -0.152089 3.814826 8.463054 2.090628 -5.625464 1.824313 -0.888948 -3.116919 4.532049 3.237895 -8.220519 6.611744 2.682038 -11.595266 18.738697 -23.992917 11.295808 3.681822 -51.187556 -3.608747 3.691979 11.843829 -29.104491 -13.652873 3.508240 -8.839652 -28.205873 21.952246 -7.679864 -1.020932 54.730333 -2.909217 18.306187 -8.298336 58.222878 5.237971 4.223784 11.005485 -21.224235 
-0.258200 0.861349 0.980309 78.033003 -1.874219 85.486770 1.059544 -1.151489 -10.099389 -1.404537 0.293844 1.227773 -1.028593 11.930092 2.125662 0.000000 -0.000000 0.000000 -2.941103 -0.421597 15.957061 -0.701419 13.568050 15.755546 5.529458 -2.304840 -11.822516 0.000000 -0.000000 0.000000 -0.752977 3.477855 7.854600 1.982656 -5.444191 1.473230 -0.980293 -3.021168 4.369521 3.144041 -8.830944 6.881285 3.011634 -11.279421 18.848074 -23.912995 11.141053 3.993829 -50.971835 -4.115960 3.547409 11.881992 -28.952671 -13.534645 4.707343 -8.367491 -27.548585 22.064174 -7.953134 -1.190852 55.060047 -3.831208 18.019257 -7.879817 56.938740 5.826554 3.758762 10.709627 -20.300222 
-0.224949 0.868418 0.984599 79.010048 -2.527432 85.616702 -0.119223 -2.722449 -8.607852 -2.296802 -0.284391 1.740489 0.745732 11.841860 1.607152 0.000000 -0.000000 0.000000 -3.531536 0.337777 13.546845 -0.233805 12.685221 22.993713 7.644419 -2.129969 -7.928358 0.000000 -0.000000 0.000000 -2.294818 3.078167 7.430997 2.067214 -5.791134 0.953606 -1.082932 -3.437295 4.284086 3.081444 -9.159925 7.391423 3.268903 -11.103839 18.703646 -23.678553 10.714154 3.988176 -50.609118 -4.634015 4.132884 12.072260 -28.630827 -13.601734 4.059155 -8.274826 -27.000525 22.183615 -8.120362 -1.544616 55.875595 -4.294237 18.575288 -8.899195 53.688682 5.240137 5.478137 9.989910 -18.497763 
-0.193804 0.875750 0.988987 80.224611 -2.430154 85.216131 -1.198328 -3.494875 -6.113799 -2.326814 -1.205552 0.955691 2.390093 12.058056 1.592092 0.000000 -0.000000 0.000000 -2.942154 1.831480 10.320008 0.432052 11.306201 31.627321 9.816353 -2.332411 -1.344186 0.000000 -0.000000 0.000000 -2.722531 2.016638 7.969759 2.087353 -5.663860 0.558219 -1.345488 -3.748730 4.010944 2.833570 -10.144779 7.123433 3.658027 -11.684980 18.904624 -23.136001 9.864502 4.471316 -50.645728 -5.572843 4.624809 12.716462 -29.378795 -13.882992 4.071147 -8.556221 -26.898450 22.465361 -7.725276 -1.743787 56.231326 -4.685150 18.844829 -9.193565 50.301301 4.903033 5.602677 9.833675 -15.899647 
-0.163514 0.884034 0.991598 81.346244 -2.500094 84.661231 -2.213758 -3.094898 -3.779194 -2.806627 -3.060816 0.779140 3.780397 12.321657 0.355201 0.000000 -0.000000 0.000000 -2.782447 2.845689 6.373027 1.835549 11.123272 40.759312 10.865876 -2.049083 6.847594 0.000000 -0.000000 0.000000 -3.076219 0.542371 8.688478 2.130097 -5.264179 0.297351 -1.734735 -3.723340 3.936016 2.206224 -10.713544 6.952634 3.850162 -11.941222 18.935711 -22.847953 8.770735 4.494889 -50.134389 -6.703034 5.056994 13.535866 -31.203985 -14.343967 5.044102 -8.339894 -26.006380 22.779519 -6.817926 -1.946853 56.605560 -5.398606 19.129345 -10.297559 47.696771 3.415959 6.141982 9.141351 -13.642261 
-0.134172 0.890897 0.993319 82.702603 -2.462706 83.911090 -2.855820 -2.727205 -1.201642 -3.321984 -5.035110 0.710077 4.359979 12.432867 -1.302160 0.000000 -0.000000 0.000000 -2.287487 4.205849 2.863307 3.697256 10.182257 48.791218 8.997143 -3.217992 9.135336 0.000000 -0.000000 0.000000 -3.793835 -0.861120 9.214206 2.425275 -5.093809 0.654423 -1.749148 -4.020868 4.041032 2.387389 -10.771169 6.595064 3.798789 -11.926721 17.874739 -22.924039 8.157519 4.009486 -49.270874 -7.760926 5.696908 14.298271 -33.964360 -13.984145 4.664752 -8.867538 -25.791123 23.336142 -6.270792 -2.308825 56.055178 -5.299932 19.572278 -10.069090 46.059965 3.506343 6.679841 8.917523 -12.590485 
-0.099402 0.898452 0.996723 84.551598 -1.840881 82.731947 -3.277049 -2.307518 2.289973 -3.139489 -6.771289 0.446535 4.396422 12.257534 -3.158840 0.000000 -0.000000 0.000000 -1.285861 4.215388 -1.462749 2.402555 7.211822 55.436509 8.700291 -6.310331 6.324963 0.000000 -0.000000 0.000000 -3.429351 -2.318848 10.730394 2.543460 -5.266966 0.473050 -1.865259 -4.474823 3.992308 2.401267 -13.878528 5.046692 3.093019 -14.540787 15.822967 -22.869423 7.159396 3.960639 -48.056820 -9.485664 6.112925 15.425965 -37.933106 -13.304610 5.794836 -9.091727 -25.697972 23.329997 -5.745294 -2.995253 55.760322 -6.205567 19.336480 -9.333865 46.229463 4.683588 6.442241 9.049863 -11.432025 
-0.071461 0.904243 0.999167 86.573760 -1.245156 82.165189 -3.347864 -1.816330 4.603909 -2.938474 -8.495330 0.421694 4.033086 11.873301 -4.657753 0.000000 -0.000000 0.000000 -0.885735 4.023678 -4.432299 0.735434 4.163761 57.105878 7.008311 -8.820842 2.433822 0.000000 -0.000000 0.000000 -3.165278 -3.460110 11.361088 2.796316 -5.352607 0.371353 -1.859472 -5.282781 4.105956 2.072318 -16.106123 4.861899 2.731443 -17.449031 14.349440 -22.493278 6.613457 4.166770 -47.438289 -10.949367 6.464309 16.728646 -41.672136 -12.081554 5.396056 -9.405267 -25.992821 22.852017 -6.031980 -3.340169 55.633672 -6.855637 19.108534 -8.690641 47.534649 6.063855 6.999188 9.058929 -12.238650 
-0.044953 0.909374 1.001313 88.546925 -0.452783 81.765943 -3.134199 -1.077680 6.627587 -2.587438 -10.572772 0.656222 3.449599 11.537555 -6.306331 0.000000 -0.000000 0.000000 -0.530333 4.429756 -7.262480 -0.987836 0.501640 56.957678 6.611837 -11.078073 -2.176890 0.000000 -0.000000 0.000000 -2.892858 -4.897127 12.067480 3.083066 -5.422190 0.336867 -1.605113 -5.753973 4.135916 1.974254 -18.218641 4.066728 2.488695 -20.266534 13.025400 -21.984836 5.908019 4.223783 -47.666356 -12.605359 6.626315 19.007454 -45.413319 -13.648543 7.005490 -9.404606 -25.250504 22.529788 -5.749193 -3.726081 55.849415 -7.988171 18.493763 -9.228034 49.308094 5.432219 5.755262 8.653211 -12.674281 
-0.019279 0.913596 1.002331 89.730756 0.376078 81.620745 -2.673009 -0.927929 8.385073 -2.411608 -11.498652 0.841692 3.135187 11.506423 -8.008005 0.000000 -0.000000 0.000000 0.183231 4.831956 -10.002579 -2.131481 -1.451221 54.593928 5.900805 -12.270171 -6.264891 0.000000 -0.000000 0.000000 -2.479538 -5.722790 12.768236 3.409057 -5.548313 -0.122737 -1.355787 -6.241027 4.231149 1.864319 -19.670027 3.835806 2.763502 -22.734894 11.790959 -21.382539 5.080074 4.046854 -47.861838 -13.882732 7.200267 21.427574 -48.279187 -14.539308 8.873484 -8.595668 -24.304893 22.227062 -5.115911 -3.612027 56.045585 -8.402143 18.184550 -9.821921 50.180644 4.975121 4.113137 8.647504 -13.653315 
0.006820 0.917861 1.001928 91.024852 0.829013 81.572023 -2.234794 0.264769 9.918632 -2.474450 -12.658532 1.250297 2.436660 10.660685 -9.425647 0.000000 -0.000000 0.000000 0.476554 4.738893 -12.109607 -3.041019 -2.962369 49.767908 5.339557 -12.441392 -10.262284 0.000000 -0.000000 0.000000 -2.395116 -6.525661 13.331500 3.625849 -5.720028 -0.262913 -0.960257 -6.677018 3.979943 2.249171 -20.446213 3.289883 2.880808 -24.032666 10.808321 -20.775752 4.465096 4.069459 -48.357165 -15.387030 7.433125 23.200120 -50.595820 -14.202193 9.126121 -8.728574 -23.869823 21.734666 -4.901826 -3.529039 56.358106 -8.231466 17.586588 -9.667707 50.713190 5.810369 4.245091 8.399079 -14.555634 
